<?xml version="1.0" encoding="utf-8"?>
<svg xmlns="http://www.w3.org/2000/svg">
  <defs>
    <symbol id="refreshIcon" viewBox="0 0 24 24">
      <path fill-rule="evenodd" clip-rule="evenodd" d="M17.217 5.333a1 1 0 1 1-1.49 1.334A5 5 0 0 0 7 10h2a1 1 0 0 1 .707 1.707l-3 3a1 1 0 0 1-1.414 0l-3-3A1 1 0 0 1 3 10h2a7 7 0 0 1 12.217-4.667m4.49 6.96A1 1 0 0 1 21 14h-2v.002a7 7 0 0 1-12.217 4.665 1 1 0 1 1 1.49-1.334A5 5 0 0 0 17 14h-2a1 1 0 0 1-.707-1.707l3-3a1 1 0 0 1 1.414 0z" fill="currentColor"/>
    </symbol>

    <symbol id="checkIcon" viewBox="0 0 24 24">
      <path d="M19.707 6.293a1 1 0 0 1 0 1.414l-10 10a1 1 0 0 1-1.414 0l-4-4a1 1 0 1 1 1.414-1.414L9 15.586l9.293-9.293a1 1 0 0 1 1.414 0" fill="currentColor"/>
    </symbol>

    <symbol id="errorIcon" viewBox="0 0 24 24" fill="none" stroke="currentColor" stroke-width="2">
      <path stroke-linecap="round" stroke-linejoin="round" d="M12 12 7 7m5 5 5 5m-5-5 5-5m-5 5-5 5" />
    </symbol>

    <symbol id="configIcon" viewBox="0 0 24 24" fill="none" stroke="currentColor" stroke-width="2">
      <path stroke-linecap="round" stroke-linejoin="round" d="M14 21h-4l-.551-2.48a7 7 0 0 1-1.819-1.05l-2.424.763-2-3.464 1.872-1.718a7 7 0 0 1 0-2.1L3.206 9.232l2-3.464 2.424.763A7 7 0 0 1 9.45 5.48L10 3h4l.551 2.48a7 7 0 0 1 1.819 1.05l2.424-.763 2 3.464-1.872 1.718a7 7 0 0 1 0 2.1l1.872 1.718-2 3.464-2.424-.763a7 7 0 0 1-1.819 1.052z"/>
      <circle cx="12" cy="12" r="3"/>
    </symbol>
  </defs>
</svg>
